<svg width="169" height="24" viewBox="0 0 169 24" fill="none" xmlns="http://www.w3.org/2000/svg">
<g id="luxury">
<path id="Vector" d="M11.189 22.9134H12.7328C14.8158 22.9134 16.4576 22.3498 17.6583 21.2226C18.8591 20.0954 20.0598 18.135 21.2605 15.3169C21.4321 14.9494 21.5791 14.7778 21.7751 14.7778C21.8241 14.7778 21.8732 14.7778 21.9222 14.7778C21.9712 14.7778 21.9957 14.7778 22.0202 14.7778L20.1578 23.8936C19.1041 23.5751 17.0212 23.4035 13.9091 23.4035H0.235352V23.2075C0.235352 23.036 0.406889 22.9379 0.774462 22.8399C1.14203 22.7664 1.55862 22.6684 1.99971 22.5949C2.4653 22.4969 2.85738 22.2028 3.22495 21.7127C3.59252 21.2226 3.76406 20.5365 3.76406 19.6298V3.62811C3.76406 2.89296 3.59252 2.32935 3.22495 1.93727C2.85738 1.54519 2.4653 1.30014 2.02422 1.22663C1.58313 1.15311 1.19105 1.0551 0.823473 0.981581C0.4559 0.883561 0.284362 0.761037 0.284362 0.614008V0.417969H11.7772V0.614008C11.7772 0.785542 11.5811 0.908066 11.2135 0.981581C10.846 1.0796 10.4294 1.15311 9.9883 1.22663C9.54721 1.30014 9.13063 1.54519 8.76305 1.96178C8.39548 2.37836 8.19943 2.94197 8.19943 3.65261C8.19943 5.17192 8.19943 7.91646 8.19943 11.8863C8.19943 15.856 8.19943 18.5761 8.19943 20.1199C8.19943 21.0266 8.44449 21.7372 8.91008 22.2028C9.37567 22.6929 10.1598 22.9134 11.2135 22.9134H11.189Z" fill="white"/>
<path id="Vector_2" d="M48.8283 13.747C48.8283 20.4613 45.8142 23.8185 39.786 23.8185C33.1452 23.8185 29.8125 20.9514 29.8125 15.2418V3.62646C29.8125 2.89131 29.641 2.3277 29.2734 1.93562C28.9303 1.54354 28.5138 1.29849 28.0972 1.22498C27.6806 1.15147 27.264 1.05345 26.9209 0.979931C26.5779 0.881912 26.3818 0.759387 26.3818 0.612358V0.416319H37.8011V0.612358C37.8011 0.783892 37.6541 0.881912 37.3845 0.979931C37.0905 1.05345 36.7719 1.12696 36.4043 1.17597C36.0368 1.22498 35.6692 1.39651 35.3261 1.66607C34.983 1.93562 34.738 2.3277 34.6155 2.79329C34.3459 3.50393 34.1989 4.31259 34.1989 5.26828V15.4868C34.1989 17.9863 34.689 19.8732 35.6447 21.1719C36.6004 22.4707 38.3647 23.1078 40.9132 23.1078C43.1432 23.1078 44.932 22.3482 46.2553 20.8044C47.5785 19.2851 48.2157 17.0796 48.2157 14.2126V4.72918C48.2157 3.74898 47.9951 2.96483 47.5786 2.40121C47.162 1.8376 46.6964 1.47003 46.1818 1.3475C45.6672 1.22498 45.2261 1.10246 44.785 0.979931C44.3684 0.857407 44.1479 0.734883 44.1479 0.563349V0.36731H52.7981V0.563349C52.7981 0.734883 52.602 0.857407 52.1855 0.979931C51.7689 1.10246 51.3278 1.22498 50.8132 1.3475C50.2986 1.47003 49.8575 1.8131 49.4409 2.40121C49.0243 2.96483 48.8283 3.74898 48.8283 4.72918V13.747Z" fill="white"/>
<path id="Vector_3" d="M72.9413 19.7751L68.7265 13.2568L65.6389 17.6677C64.3646 19.5301 63.7275 20.7308 63.7275 21.2944C63.7275 21.6865 63.8745 21.9806 64.1686 22.2256C64.4626 22.4462 64.7812 22.5932 65.1243 22.6422C65.4673 22.6912 65.7859 22.7647 66.08 22.8628C66.374 22.9608 66.521 23.0833 66.521 23.2303V23.4019H57.9443V23.2303C57.9443 23.0588 58.0424 22.9608 58.2384 22.8873C58.4344 22.8137 58.7285 22.7402 59.1206 22.6422C59.5126 22.5442 59.9537 22.3727 60.4438 22.1521C60.9339 21.9316 61.4975 21.5395 62.1592 20.9759C62.8208 20.4123 63.4579 19.6771 64.0706 18.7704L68.3834 12.6932L63.0658 4.43509C62.6248 3.74895 62.1837 3.16083 61.6936 2.67074C61.2035 2.18064 60.7869 1.83757 60.4438 1.61703C60.1008 1.39648 59.7577 1.22495 59.4636 1.10242C59.1696 0.9799 58.949 0.881881 58.802 0.783861C58.655 0.685842 58.5815 0.612327 58.5815 0.538812V0.342773H69.6332V0.538812C69.6332 0.710347 69.4861 0.832871 69.2166 0.906386C68.947 1.00441 68.6285 1.07792 68.3099 1.15143C67.9668 1.22495 67.6728 1.34747 67.4032 1.56802C67.1337 1.76406 66.9866 2.05811 66.9866 2.42569C66.9866 2.74425 67.2072 3.28336 67.6483 4.04301C68.0894 4.80266 68.751 5.83186 69.6332 7.15513C70.5153 8.45389 71.0789 9.31156 71.324 9.72814L74.3136 5.31726C75.1958 3.994 75.6614 3.06281 75.6614 2.4992C75.6614 2.10712 75.5388 1.81307 75.2938 1.59252C75.0487 1.37198 74.7547 1.24945 74.4606 1.20044C74.1666 1.15143 73.8725 1.07792 73.6275 0.9799C73.3824 0.881881 73.2599 0.734851 73.2599 0.563317V0.367278H81.616V0.563317C81.616 0.734851 81.4445 0.906385 81.0769 1.0044C80.7339 1.12693 80.2683 1.24945 79.7292 1.39648C79.1901 1.54351 78.4794 1.9601 77.5972 2.64623C76.7151 3.33237 75.8819 4.26355 75.0487 5.41528L71.6671 10.2182L78.3079 20.3633C78.7735 21.0004 79.2636 21.515 79.8027 21.9071C80.3418 22.2991 80.7829 22.5197 81.1505 22.6177C81.4935 22.6912 81.8121 22.7892 82.0571 22.8628C82.3022 22.9608 82.4247 23.0588 82.4247 23.2058V23.4019H70.8584V23.2303C70.8584 23.0833 71.0054 22.9853 71.275 22.8628C71.5445 22.7647 71.8631 22.6667 72.2062 22.6177C72.5492 22.5442 72.8678 22.3972 73.1374 22.2011C73.4069 21.9806 73.5539 21.711 73.5539 21.368C73.5539 20.9024 73.3579 20.3633 72.9413 19.7506V19.7751Z" fill="white"/>
<path id="Vector_4" d="M110.116 13.747C110.116 20.4613 107.102 23.8185 101.074 23.8185C94.4333 23.8185 91.1006 20.9514 91.1006 15.2418V3.62646C91.1006 2.89131 90.9291 2.3277 90.5615 1.93562C90.2184 1.54354 89.8019 1.29849 89.3853 1.22498C88.9687 1.15147 88.5521 1.05345 88.209 0.979931C87.866 0.881912 87.6699 0.759387 87.6699 0.612358V0.416319H99.0892V0.612358C99.0892 0.783892 98.9422 0.881912 98.6726 0.979931C98.3785 1.05345 98.06 1.12696 97.6924 1.17597C97.3249 1.22498 96.9573 1.39651 96.6142 1.66607C96.2711 1.93562 96.0261 2.3277 95.9036 2.79329C95.634 3.50393 95.487 4.31259 95.487 5.26828V15.4868C95.487 17.9863 95.9771 19.8732 96.9328 21.1719C97.8884 22.4707 99.6528 23.1078 102.201 23.1078C104.431 23.1078 106.22 22.3482 107.543 20.8044C108.867 19.2851 109.504 17.0796 109.504 14.2126V4.72918C109.504 3.74898 109.283 2.96483 108.867 2.40121C108.45 1.8376 107.984 1.47003 107.47 1.3475C106.955 1.22498 106.514 1.10246 106.073 0.979931C105.657 0.857407 105.436 0.734883 105.436 0.563349V0.36731H114.086V0.563349C114.086 0.734883 113.89 0.857407 113.474 0.979931C113.057 1.10246 112.616 1.22498 112.101 1.3475C111.587 1.47003 111.146 1.8131 110.729 2.40121C110.312 2.96483 110.116 3.74898 110.116 4.72918V13.747Z" fill="white"/>
<path id="Vector_5" d="M128.372 12.4727H127.588V19.7996C127.588 20.6573 127.784 21.3189 128.152 21.7845C128.519 22.2501 128.936 22.5442 129.377 22.6177C129.818 22.6912 130.234 22.7892 130.602 22.8628C130.97 22.9608 131.166 23.0833 131.166 23.2303V23.4019H119.673V23.2303C119.673 23.0588 119.844 22.9118 120.212 22.8137C120.58 22.7157 120.972 22.6422 121.437 22.5442C121.878 22.4462 122.295 22.1276 122.662 21.5885C123.03 21.0494 123.202 20.3142 123.202 19.3341V3.62643C123.202 2.89128 123.03 2.32767 122.662 1.91109C122.295 1.4945 121.903 1.24945 121.462 1.20044C121.021 1.15143 120.629 1.05341 120.261 0.9799C119.893 0.906386 119.722 0.759356 119.722 0.587822V0.342773H129.695C132.783 0.342773 135.184 0.832871 136.924 1.81307C138.64 2.79326 139.522 4.31256 139.522 6.37097C139.522 8.15983 138.689 9.63012 137.047 10.8064C135.38 11.9826 133.053 12.5462 130.038 12.5462C129.94 12.5462 129.769 12.5462 129.524 12.5462C129.279 12.5462 129.107 12.5462 129.034 12.5462C129.989 13.6979 131.803 14.237 134.449 14.188L138.885 20.4613C139.522 21.3435 140.208 21.9806 140.943 22.3236C141.678 22.6667 142.242 22.8873 142.634 22.9363C143.026 22.9853 143.222 23.1323 143.222 23.3283V23.4754H136.189L128.397 12.4972L128.372 12.4727ZM127.588 0.906386V11.9336H128.985C130.823 11.9336 132.244 11.419 133.298 10.4143C134.327 9.38507 134.866 8.08631 134.866 6.44449C134.866 4.80266 134.327 3.40588 133.249 2.42569C132.17 1.42099 130.774 0.93089 129.058 0.93089H127.612L127.588 0.906386Z" fill="white"/>
<path id="Vector_6" d="M159.272 12.301H159.37L162.801 5.58663C163.462 4.33689 163.805 3.4057 163.805 2.81758C163.805 2.22947 163.56 1.78838 163.07 1.54333C162.58 1.27378 162.09 1.10224 161.6 1.00422C161.11 0.906204 160.865 0.78368 160.865 0.63665V0.391602H169.001V0.63665C169.001 0.808184 168.829 0.930709 168.51 1.02873C168.192 1.12675 167.8 1.22477 167.334 1.34729C166.869 1.44531 166.305 1.78838 165.692 2.35199C165.08 2.9156 164.492 3.67525 164.002 4.63094C162.752 6.98341 161.281 9.77697 159.615 13.0361V19.8485C159.615 20.7061 159.811 21.3678 160.179 21.8334C160.546 22.299 160.963 22.593 161.404 22.6665C161.845 22.74 162.262 22.8381 162.629 22.9116C162.997 23.0096 163.193 23.1321 163.193 23.2792V23.4507H151.749V23.2792C151.749 23.1076 151.921 22.9851 152.288 22.9116C152.656 22.8136 153.048 22.74 153.464 22.642C153.881 22.544 154.273 22.2745 154.641 21.7844C155.008 21.2943 155.18 20.6326 155.18 19.7995V13.6732L149.446 3.47922C149.078 2.84209 148.686 2.32749 148.22 1.95991C147.779 1.59234 147.387 1.34729 147.069 1.24927C146.75 1.15125 146.481 1.07774 146.26 0.979719C146.039 0.881699 145.941 0.759175 145.941 0.612145V0.416106H156.601V0.661155C156.601 0.808184 156.454 0.906204 156.16 1.00422C155.866 1.10224 155.572 1.17576 155.229 1.22477C154.886 1.27378 154.592 1.42081 154.298 1.64135C154.004 1.86189 153.856 2.13145 153.856 2.47452C153.856 2.76857 153.955 3.06263 154.126 3.35669L159.199 12.35L159.272 12.301Z" fill="white"/>
</g>
</svg>
