<svg width="90" height="24" viewBox="0 0 90 24" fill="none" xmlns="http://www.w3.org/2000/svg">
<g id="uniq">
<path id="Vector" d="M10.5124 21.9814C6.64066 21.9814 4.48424 19.874 3.38152 18.0851C2.40132 16.5413 1.88672 14.6299 1.88672 12.596V0.392578H2.86691V12.596C2.86691 14.4584 3.33251 16.1737 4.19018 17.546C5.61146 19.8249 7.74338 20.9767 10.4879 20.9767C13.2325 20.9767 15.3644 19.8249 16.8102 17.546C17.6924 16.1492 18.158 14.4339 18.158 12.5715V0.392578H19.1381V12.5715C19.1381 14.6299 18.6235 16.5168 17.6434 18.0851C16.5161 19.874 14.3842 21.9814 10.4879 21.9814H10.5124Z" fill="white"/>
<path id="Vector_2" d="M10.5126 23.8192C6.98389 23.8192 4.21484 22.594 2.22994 20.168C0.808661 18.4037 0 16.0512 0 13.5762V0.392578H1.0047V13.5762C1.0047 15.8306 1.71534 17.9381 3.0141 19.5309C4.77845 21.7118 7.30245 22.8145 10.5126 22.8145C13.7227 22.8145 16.2467 21.7118 18.0356 19.5064C19.3343 17.9136 20.045 15.7816 20.045 13.5272V0.392578H21.0252V13.5272C21.0252 16.0022 20.241 18.3547 18.7952 20.119C16.8103 22.545 14.0168 23.7947 10.4881 23.7947L10.5126 23.8192Z" fill="white"/>
<path id="Vector_3" d="M57.1208 0.392578H56.1406V23.3046H57.1208V0.392578Z" fill="white"/>
<path id="Vector_4" d="M58.9597 0.392578H57.9795V23.3046H58.9597V0.392578Z" fill="white"/>
<path id="Vector_5" d="M48.9607 23.3291V0.392578H47.956V22.1284L28.9893 3.13712V23.3291H29.9695V5.5386L47.76 23.3291H48.9607Z" fill="white"/>
<path id="Vector_6" d="M46.1662 0.417083V17.9136L28.3511 0.392578H27.1504V23.3291H28.1306V1.59332L47.1464 20.2905V0.417083H46.1662Z" fill="white"/>
<path id="Vector_7" d="M78.5381 14.7032L86.9678 23.2309L87.6784 22.4958L78.5381 13.3555V14.7032Z" fill="white"/>
<path id="Vector_8" d="M89.4434 11.8604C89.4434 5.31756 84.1258 0 77.583 0C71.0402 0 65.7227 5.31756 65.7227 11.8604C65.7227 18.4032 71.0402 23.7207 77.583 23.7207C80.1315 23.7207 82.5085 22.8876 84.4444 21.5153L83.7337 20.8046C81.9694 22.0054 79.862 22.7405 77.583 22.7405C71.5793 22.7405 66.7029 17.8641 66.7029 11.8604C66.7029 5.85667 71.6038 0.980195 77.583 0.980195C83.5622 0.980195 88.4632 5.85667 88.4632 11.8604C88.4632 14.3599 87.6055 16.6633 86.1842 18.5012C85.9882 18.7707 85.7676 19.0158 85.5226 19.2608L86.2332 19.9715L88.1446 21.8829L88.8553 21.1722L86.8704 19.2118C88.4632 17.2024 89.4434 14.6539 89.4434 11.8604Z" fill="white"/>
<path id="Vector_9" d="M80.3505 12.742H79.0027L84.1242 17.8635L84.8349 18.5742C85.0554 18.3291 85.276 18.0841 85.472 17.8145C86.7217 16.1482 87.4814 14.0898 87.4814 11.8598C87.4814 6.41976 83.046 1.98438 77.6059 1.98438C72.1659 1.98438 67.7305 6.41976 67.7305 11.8598C67.7305 17.2999 72.1659 21.7353 77.6059 21.7353C79.6888 21.7353 81.6002 21.0982 83.193 19.9955L82.4824 19.2848C81.0856 20.216 79.3948 20.7551 77.6059 20.7551C72.705 20.7551 68.7107 16.7608 68.7107 11.8598C68.7107 6.95886 72.705 2.96457 77.6059 2.96457C82.5069 2.96457 86.5012 6.95886 86.5012 11.8598C86.5012 13.8202 85.8641 15.6336 84.7614 17.1039L80.3505 12.742Z" fill="white"/>
</g>
</svg>
